<?xml version="1.0" encoding="UTF-8"?>
<svg id="Ebene_1" data-name="Ebene 1" xmlns="http://www.w3.org/2000/svg" width="750" height="500" viewBox="0 0 750 500">
  <defs>
    <style>
      .cls-1 {
        fill: #db131f;
      }

      .cls-2 {
        fill: #0c74bb;
      }
    </style>
  </defs>
  <path class="cls-1" d="M87.44442,250.56419l626.4848,224.81339-2.18788-455.63365L87.44442,250.56419ZM666.29637,400.68723L223.83473,249.90879l440.99328-155.02074,1.46836,305.79918Z"/>
  <path class="cls-2" d="M439.48255,298.74166l-148.64988-49.15447,146.96106-50.50604s.93078,3.26931,1.57276,6.21244c.62674,2.87323,1.16508,5.3492,1.22401,5.6511.26632,1.36436.57401,3.0343.9063,4.80523.25217,1.34397.76248,4.59373.93331,5.76409.40677,2.78669.49474,3.60457.65943,4.80612.2275,1.65979.51825,4.58975.67361,6.10475.15284,1.49041.37371,4.40142.48465,5.97218.09004,1.27491.20802,3.82825.27893,5.10426.10593,1.90627.17288,4.98928.17934,6.95202.00476,1.44941.02338,4.25038-.02486,5.79762-.04377,1.40396-.1133,4.1328-.1773,5.61577-.06392,1.48116-.2924,5.11706-.2924,5.11706,0,0-.37167,4.91873-.56108,6.58373-.18174,1.59762-.66481,6.03114-.66481,6.03114,0,0-.5351,3.76155-.76812,5.17635-.26133,1.58671-.71454,4.49542-1.02112,6.01443-.55742,2.7619-1.71385,7.95223-1.71385,7.95223Z"/>
  <path class="cls-2" d="M367.77199,351.15928c-30.16827,39.05139-77.33922,64.3214-130.50938,64.57674-91.61722.43997-166.2442-73.47366-166.68416-165.09083-.43996-91.61718,73.47371-166.24427,165.09093-166.68424,53.17002-.25534,100.58121,24.56061,131.12328,63.32017l41.39199-15.30386c-37.7471-54.88527-101.08413-90.76245-172.71889-90.41844-115.03522.55243-207.84187,94.25469-207.28946,209.29.55241,115.03516,94.25471,207.84176,209.28993,207.28933,71.63477-.34401,134.62459-36.82784,171.84269-92.07339l-41.53692-14.90547Z"/>
</svg>